<?xml version="1.0" standalone="no"?>
<!DOCTYPE svg PUBLIC "-//W3C//DTD SVG 20010904//EN"
 "http://www.w3.org/TR/2001/REC-SVG-20010904/DTD/svg10.dtd">
<svg version="1.0" xmlns="http://www.w3.org/2000/svg"
 width="512.000000pt" height="512.000000pt" viewBox="0 0 512.000000 512.000000"
 preserveAspectRatio="xMidYMid meet">
<metadata>
Created by potrace 1.14, written by Peter Selinger 2001-2017
</metadata>
<g transform="translate(0.000000,512.000000) scale(0.100000,-0.100000)"
fill="#000000" stroke="none">
<path d="M970 4150 l0 -315 635 0 c414 0 636 -3 638 -10 2 -5 3 -521 2 -1145
l-2 -1135 -21 -55 c-27 -69 -87 -131 -161 -168 -75 -36 -190 -38 -267 -4 -60
27 -123 88 -156 152 l-23 45 -3 843 c-1 463 -6 842 -10 843 -4 0 -148 1 -320
2 l-312 2 0 -850 c1 -914 1 -912 54 -1064 168 -481 683 -741 1181 -596 97 29
196 79 289 148 47 35 72 48 81 41 6 -5 34 -26 61 -46 237 -181 592 -234 878
-131 153 55 257 121 371 238 116 117 210 283 244 430 6 28 14 61 18 75 7 27
14 1716 7 1740 -3 13 -46 15 -314 14 -171 0 -312 -3 -315 -5 -2 -3 -6 -381 -7
-840 l-3 -834 -24 -49 c-31 -62 -101 -133 -160 -159 -35 -16 -67 -21 -131 -22
-75 0 -92 3 -140 29 -68 35 -110 77 -147 147 l-28 54 -2 1155 -1 1155 634 0
c558 0 635 1 638 15 2 8 4 150 3 315 l-2 300 -1592 1 -1593 0 0 -316z"/>
</g>
</svg>
